inDegrees=yes
name=ik_S53_A03_T02
DataType=double
version=3
OpenSimVersion=4.3-2021-08-27-4bc7ad9
endheader
time	pelvis_tilt	pelvis_list	pelvis_rotation	pelvis_tx	pelvis_ty	pelvis_tz	hip_flexion_r	hip_adduction_r	hip_rotation_r	knee_angle_r	knee_angle_r_beta	ankle_angle_r	subtalar_angle_r	mtp_angle_r	hip_flexion_l	hip_adduction_l	hip_rotation_l	knee_angle_l	knee_angle_l_beta	ankle_angle_l	subtalar_angle_l	mtp_angle_l	lumbar_extension	lumbar_bending	lumbar_rotation	arm_flex_r	arm_add_r	arm_rot_r	elbow_flex_r	pro_sup_r	wrist_flex_r	wrist_dev_r	arm_flex_l	arm_add_l	arm_rot_l	elbow_flex_l	pro_sup_l	wrist_flex_l	wrist_dev_l
23.74999999999993	0.7331341503062331	0.02287171046242143	99.00371717741456	0	0.9399999999999999	0	-1.22079258926226	1.08862221619559	10.04132676976178	-4.043217560335064	-0.07056745880229935	0	0	0	8.397087169213254	-9.012445360855533	17.15114452083767	12.28427296080475	0.2144010093797553	0	0	0	0	0	0	38.92085072090587	-38.92085072090587	4.84758554997801	82.9620771688338	85.15241471799287	0	0	38.92085072090587	-38.92085072090587	4.84758554997801	82.9620771688338	85.15241471796446	0	0
23.7666666666666	0.674663918920973	-0.1261764554934709	99.61197748024448	0	0.9399999999999999	0	-1.538996298507063	1.226143083257745	9.769153291973529	-4.6063543649334	-0.08039605018170025	0	0	0	8.61215910614674	-8.924752026735788	16.63356128699684	12.23590656846793	0.2135568565861663	0	0	0	0	0	0	38.9223019698168	-38.9223019698168	4.847657273117356	82.9630365823889	85.1523429948568	0	0	38.9223019698168	-38.9223019698168	4.847657273117356	82.9630365823889	85.1523429948284	0	0
23.78333333333326	0.5813316887610039	-0.2122118926512825	100.0902102004353	0	0.9399999999999999	0	-1.464727022395468	1.135954746967939	9.282910719539387	-4.611702718697595	-0.0804893965644469	0	0	0	8.795914867033771	-8.779592720219215	16.05795947782419	12.3647280173752	0.2158052150167878	0	0	0	0	0	0	38.93090128724182	-38.93090128724182	4.848028715996279	82.96800429166262	85.15197155199446	0	0	38.93090128724182	-38.93090128724182	4.848028715996279	82.96800429166262	85.15197155196613	0	0
23.79999999999993	0.3794947575429619	-0.2238757389992256	100.7481521775226	0	0.9399999999999999	0	-1.580550230369916	1.061136308317863	8.809413220516355	-4.78466134552774	-0.08350809407236114	0	0	0	8.856268536876048	-8.51566425896578	15.07227935352656	12.47463061011306	0.217723377116542	0	0	0	0	0	0	38.93971934139558	-38.93971934139558	4.84841348765011	82.97315034017053	85.15158678035785	0	0	38.93971934139558	-38.93971934139558	4.84841348765011	82.97315034017053	85.15158678032955	0	0
23.8166666666666	0.3495355736214092	-0.2200134375144575	100.9727769855853	0	0.9399999999999999	0	-1.602826395579671	1.047625224899832	8.585444289623947	-4.810541024897432	-0.0839597796867227	0	0	0	8.804228802549318	-8.445668726342792	13.37252150894834	12.61779178308798	0.2202220109459713	0	0	0	0	0	0	38.94981435814726	-38.94981435814726	4.848854132023933	82.97904364463545	85.15114613600379	0	0	38.94981435814726	-38.94981435814726	4.848854132023933	82.97904364463545	85.15114613597554	0	0
23.83333333333326	0.2625539370685288	-0.1794386637599634	101.4323289345958	0	0.9399999999999999	0	-1.866039819954255	1.159636266181236	8.522085037675389	-5.065117297982887	-0.08840297384952012	0	0	0	8.765236530117887	-8.281948464327778	11.57011411295452	12.90389467093914	0.2252154483384383	0	0	0	0	0	0	38.95847892201305	-38.95847892201305	4.84923493413275	82.98413665357803	85.15076533391208	0	0	38.95847892201305	-38.95847892201305	4.84923493413275	82.98413665357803	85.15076533388385	0	0
23.84999999999993	0.1767914697667943	-0.1579750005226146	101.9285100401582	0	0.9399999999999999	0	-2.010944788118907	1.142741915942753	8.164248143200378	-5.159322542985762	-0.09004716554746821	0	0	0	9.067920601743335	-8.038865853092098	10.96672344179109	13.40071594076002	0.2338866152907517	0	0	0	0	0	0	38.95936060612137	-38.95936060612137	4.849279167739529	82.98472835981035	85.15072110030725	0	0	38.95936060612137	-38.95936060612137	4.849279167739529	82.98472835981035	85.15072110027916	0	0
23.86666666666659	0.1772470227703637	-0.1746538717647078	102.2594792311425	0	0.9399999999999999	0	-1.992219803596791	1.156031274885435	7.828357875811564	-5.184588553488134	-0.09048814061957808	0	0	0	9.014115738449998	-8.039264301832249	10.54477295949694	13.39070543824305	0.2337118990620514	0	0	0	0	0	0	38.95950425227236	-38.95950425227236	4.849286282764046	82.98482353481096	85.15071398528306	0	0	38.95950425227236	-38.95950425227236	4.849286282764046	82.98482353481096	85.15071398525497	0	0
23.88333333333326	0.150772219335626	-0.1742859930056886	102.2338322180225	0	0.9399999999999999	0	-2.142203519130801	1.156798470034475	8.04298152052707	-5.272860781592061	-0.09202878163806308	0	0	0	8.991958472054019	-8.038548908839729	7.647349775900484	13.90914484385514	0.2427603736620647	0	0	0	0	0	0	38.97013255917973	-38.97013255917973	4.849752638769323	82.99106075694363	85.1502476292987	0	0	38.97013255917973	-38.97013255917973	4.849752638769323	82.99106075694363	85.15024762927067	0	0
23.89999999999992	0.1386765189578351	-0.1647600631437455	102.2146130799112	0	0.9399999999999999	0	-2.148099968845306	1.143830204881979	8.144770908545619	-5.225622062092265	-0.09120431044836559	0	0	0	8.930517265438263	-7.997751878018352	4.480452612613137	14.61344219443879	0.2550526813428223	0	0	0	0	0	0	38.98251552152212	-38.98251552152212	4.850292606780359	82.99828242595919	85.14970766131184	0	0	38.98251552152212	-38.98251552152212	4.850292606780359	82.99828242595919	85.14970766128387	0	0
